<svg id="Calque_1" data-name="Calque 1" xmlns="http://www.w3.org/2000/svg" xmlns:xlink="http://www.w3.org/1999/xlink" viewBox="0 0 1631.76 784"><defs><style>.cls-1{fill:url(#Dégradé_sans_nom_24);}.cls-2{font-size:100px;font-family:GilmerLight, Gilmer Light;}.cls-3,.cls-4,.cls-5,.cls-6,.cls-7{fill:#c49a6c;}.cls-3{letter-spacing:0em;}.cls-5{letter-spacing:-0.03em;}.cls-6{letter-spacing:-0.09em;}.cls-7{letter-spacing:-0.04em;}.cls-8{font-family:MyriadPro-Regular, Myriad Pro;}.cls-9{fill:#fff;font-family:GilmerHeavy, Gilmer Heavy;}</style><linearGradient id="Dégradé_sans_nom_24" y1="392" x2="1631.76" y2="392" gradientUnits="userSpaceOnUse"><stop offset="0" stop-color="#fff"/><stop offset="0.29" stop-opacity="0.6"/></linearGradient></defs><title>banner2</title><image width="6799" height="3400" transform="translate(0) scale(0.24 0.23)" xlink:href="banner.jpg"/><path class="cls-1" d="M1631.75,773.5c0-10.66,0-17.75,0-29.25,0-5.6-1.72-10.63,0-15.25V715.24c0,4.59-31.76-4.24-92.4-3.44-337.68,4.48-282.5-1-344.36-11.8-192.29-33.65-316.18-16.18-482-178C399.76,216.32,223,600,0,0V784H1631.76C1630.75,784,1631.76,781.7,1631.75,773.5Z" transform="translate(0)"/><text class="cls-2" transform="translate(29.95 392)"><tspan class="cls-3">J</tspan><tspan class="cls-4" x="59.57" y="0">e </tspan><tspan class="cls-5" x="144.73" y="0">m</tspan><tspan class="cls-6" x="233.3" y="0">’</tspan><tspan class="cls-4" x="246.78" y="0">amelio</tspan><tspan class="cls-7" x="565.53" y="0">r</tspan><tspan class="cls-4" x="595.9" y="0">e de</tspan><tspan class="cls-8" x="804" y="0"> </tspan><tspan class="cls-9" x="825.2" y="0">JOUR EN JOUR</tspan></text></svg>